# xmcd
#
# Track frame offsets: 
#        150
#        20414
#        40243
#        60391
#        83577
#        99521
#        121000
#        137604
#
# Disc length: 2061 seconds
#
# Revision: 3
# Processed by: cddbd v1.5.2PL0 Copyright (c) Steve Scherf et al.
# Submitted via: ExactAudioCopyFreeDBPlugin 1.0
#
DISCID=56080b08
DTITLE=R. Kelly - The R. In R&B Collection CD2
DYEAR=2003
DGENRE=R&B
TTITLE0=Snake - Remix (Feat. Cam'ron and Big Tigger)
TTITLE1=Bump N' Grind - Old School Mix
TTITLE2=Down Low (Nobody Has To Know) (Feat. Ronald Isley) Live To Reg
TTITLE2=ret Mix (Blame It On The Mo')
TTITLE3=Step In The Name Of Love - Remix
TTITLE4=Ghetto Religion (Feat. Wyclef Jean)
TTITLE5=Gotham City - Remix
TTITLE6=Thoia Thoing
TTITLE7=Touched A Dream
EXTD=
EXTT0=
EXTT1=
EXTT2=
EXTT3=
EXTT4=
EXTT5=
EXTT6=
EXTT7=
PLAYORDER=
